<?xml version="1.0" encoding="iso-8859-1"?>
<!-- Uploaded to: SVG Repo, www.svgrepo.com, Generator: SVG Repo Mixer Tools -->
<svg height="800px" width="800px" version="1.1" id="Layer_1" xmlns="http://www.w3.org/2000/svg" xmlns:xlink="http://www.w3.org/1999/xlink" 
	 viewBox="0 0 512 512" xml:space="preserve">
<path style="fill:#CCCCCC;" d="M102.003,231.361V122.972c0-61.552,49.343-112.418,110.894-112.771
	c61.804-0.355,112.197,49.82,112.197,111.544v109.616h-40.655V122.648c0-39.028-31.165-71.413-70.191-71.791
	c-39.409-0.382-71.589,31.564-71.589,70.887V231.36h-40.656V231.361z"/>
<path style="fill:#FF931E;" d="M346.37,320.167c1.581,0,3.153,0.041,4.714,0.12l1.201-2.072v-86.854H74.812v230.113h194.447
	l0.757-1.306c-9.15-14.175-14.461-31.059-14.461-49.184C255.554,360.827,296.213,320.167,346.37,320.167z"/>
<path style="fill:#FF1D25;" d="M351.084,320.288c-1.561-0.08-3.132-0.12-4.714-0.12c-50.157,0-90.817,40.66-90.817,90.817
	c0,18.126,5.313,35.01,14.461,49.184c16.17,25.049,44.325,41.633,76.355,41.633c50.157,0,90.817-40.66,90.817-90.817
	C437.187,362.408,399.05,322.741,351.084,320.288z"/>
<path d="M213.549,290.357c-5.632,0-10.199,4.566-10.199,10.199v8.996c0,5.633,4.567,10.199,10.199,10.199
	s10.199-4.566,10.199-10.199v-8.996C223.748,294.923,219.181,290.357,213.549,290.357z"/>
<path d="M213.549,333.058c-5.632,0-10.199,4.566-10.199,10.199v50.806c0,5.633,4.567,10.199,10.199,10.199
	s10.199-4.566,10.199-10.199v-50.806C223.748,337.624,219.181,333.058,213.549,333.058z"/>
<path d="M362.485,311.259v-79.899c0-5.633-4.567-10.199-10.199-10.199h-16.992v-99.417c0-32.604-12.766-63.252-35.945-86.299
	C276.342,12.572,245.901,0,213.557,0c-0.239,0-0.479,0.001-0.718,0.002C146.1,0.385,91.804,55.549,91.804,122.972v98.189H74.813
	c-5.632,0-10.199,4.566-10.199,10.199v230.113c0,5.633,4.567,10.199,10.199,10.199h190.858C284.122,496.147,313.429,512,346.37,512
	c55.7,0,101.016-45.316,101.016-101.016C447.386,360.768,410.553,318.998,362.485,311.259z M274.24,221.162H152.857v-99.417
	c0-16.292,6.396-31.599,18.01-43.101c11.468-11.358,26.603-17.591,42.679-17.591c0.2,0,0.403,0.001,0.604,0.003
	c33.134,0.32,60.091,27.951,60.091,61.592V221.162z M112.202,122.972c0-56.239,45.198-102.253,100.754-102.571
	c0.2-0.002,0.397-0.002,0.597-0.002c26.917,0,52.259,10.468,71.414,29.513c19.301,19.189,29.93,44.7,29.93,71.834v99.417H294.64
	v-98.512c0-44.781-36.018-81.561-80.292-81.989c-21.75-0.207-42.325,8.131-57.833,23.491
	c-15.512,15.363-24.055,35.817-24.055,57.595v99.417h-20.257v-98.192H112.202z M85.012,451.275V241.56h257.075v68.505
	c-53.72,2.253-96.732,46.654-96.732,100.919c0,14.315,3,27.941,8.393,40.291H85.012z M346.37,491.602
	c-44.452,0-80.618-36.164-80.618-80.618s36.165-80.618,80.618-80.618s80.618,36.164,80.618,80.618S390.822,491.602,346.37,491.602z"
	/>
<path d="M383.053,376.278c-3.984-3.983-10.44-3.983-14.425,0l-22.111,22.111l-22.111-22.111c-3.984-3.983-10.44-3.983-14.425,0
	c-3.983,3.983-3.983,10.441,0,14.425l22.111,22.111l-22.111,22.111c-3.983,3.983-3.983,10.441,0,14.425
	c1.992,1.992,4.602,2.987,7.212,2.987c2.61,0,5.22-0.995,7.212-2.987l22.111-22.111l22.111,22.111
	c1.992,1.992,4.602,2.987,7.212,2.987s5.22-0.995,7.212-2.987c3.983-3.983,3.983-10.441,0-14.425l-22.111-22.111l22.111-22.111
	C387.036,386.719,387.036,380.261,383.053,376.278z"/>
</svg>