<?xml version="1.0" encoding="iso-8859-1"?>
<!-- Uploaded to: SVG Repo, www.svgrepo.com, Generator: SVG Repo Mixer Tools -->
<svg version="1.1" id="Layer_1" xmlns="http://www.w3.org/2000/svg" xmlns:xlink="http://www.w3.org/1999/xlink" 
	 viewBox="0 0 512 512" xml:space="preserve">
<rect x="104.869" y="251.574" style="fill:#666666;" width="302.274" height="250.227"/>
<path style="fill:#CCCCCC;" d="M377.514,250.9h-44.288V131.713c0-42.583-34.643-77.225-77.225-77.225s-77.225,34.643-77.225,77.225
	v69.212h-44.288v-69.212c0-67.003,54.511-121.513,121.513-121.513S377.514,64.71,377.514,131.713V250.9z"/>
<path d="M407.135,241.372h-19.422v-109.66C387.713,59.086,328.627,0,256.001,0S124.288,59.086,124.288,131.713v69.212
	c0,5.633,4.566,10.199,10.199,10.199h44.288c5.633,0,10.199-4.566,10.199-10.199v-69.212c0-36.958,30.067-67.026,67.026-67.026
	s67.026,30.067,67.026,67.026v109.66H104.866c-5.633,0-10.199,4.566-10.199,10.199v250.229c0,5.633,4.566,10.199,10.199,10.199
	h302.269c5.633,0,10.199-4.566,10.199-10.199V251.572C417.335,245.938,412.768,241.372,407.135,241.372z M256.001,44.288
	c-48.206,0-87.425,39.218-87.425,87.425v59.013h-23.89v-59.013c0-61.379,49.935-111.314,111.314-111.314
	s111.314,49.935,111.314,111.314v108.989h-23.89V131.713C343.425,83.506,304.206,44.288,256.001,44.288z M396.936,491.602H115.065
	V261.771h281.87v229.831H396.936z"/>
<path style="fill:#BDCCD4;" d="M282.518,348.813c0-14.645-11.873-26.518-26.518-26.518c-14.645,0-26.518,11.873-26.518,26.518
	c0,9.19,4.675,17.285,11.776,22.043l-7.696,44.252h44.876l-7.119-44.656C278.093,365.648,282.518,357.749,282.518,348.813z"/>
<path d="M278.439,425.307h-44.876c-3.011,0-5.868-1.33-7.805-3.634c-1.938-2.304-2.759-5.346-2.243-8.312l6.683-38.424
	c-6.925-6.835-10.913-16.197-10.913-26.123c0-20.246,16.471-36.717,36.717-36.717s36.717,16.471,36.717,36.717
	c0,9.635-3.814,18.825-10.434,25.626l6.228,39.064c0.469,2.949-0.375,5.954-2.313,8.226
	C284.26,423.998,281.424,425.307,278.439,425.307z M245.688,404.908h20.797l-5.237-32.852c-0.611-3.833,1.007-7.68,4.171-9.925
	c4.32-3.064,6.9-8.043,6.9-13.319c0-8.998-7.321-16.319-16.319-16.319c-8.998,0-16.319,7.321-16.319,16.319
	c0,5.454,2.712,10.527,7.254,13.57c3.348,2.244,5.062,6.249,4.371,10.221L245.688,404.908z"/>
<path d="M139.73,477.323c-5.633,0-10.199-4.566-10.199-10.199v-73.434c0-5.633,4.566-10.199,10.199-10.199
	c5.633,0,10.199,4.566,10.199,10.199v73.434C149.929,472.757,145.363,477.323,139.73,477.323z"/>
<path d="M139.73,366.151c-5.633,0-10.199-4.566-10.199-10.199v-17.339c0-5.633,4.566-10.199,10.199-10.199
	c5.633,0,10.199,4.566,10.199,10.199v17.339C149.929,361.585,145.363,366.151,139.73,366.151z"/>
</svg>